<mxfile host="app.diagrams.net" modified="2021-07-13T07:07:03.440Z" agent="5.0 (Windows NT 10.0; Win64; x64) AppleWebKit/537.36 (KHTML, like Gecko) Chrome/91.0.4472.124 Safari/537.36 Edg/91.0.864.67" etag="msZV3pQWb2i18n8LT2P1" version="14.8.6" type="github">
  <diagram id="kgpKYQtTHZ0yAKxKKP6v" name="Page-1">
    <mxGraphModel dx="1662" dy="804" grid="1" gridSize="10" guides="1" tooltips="1" connect="1" arrows="1" fold="1" page="1" pageScale="1" pageWidth="850" pageHeight="1100" math="0" shadow="0">
      <root>
        <mxCell id="0" />
        <mxCell id="1" parent="0" />
        <mxCell id="uLN1TVFjSlXKnkesUgfp-20" value="alt" style="shape=umlFrame;whiteSpace=wrap;html=1;" vertex="1" parent="1">
          <mxGeometry x="50" y="390" width="620" height="230" as="geometry" />
        </mxCell>
        <mxCell id="3nuBFxr9cyL0pnOWT2aG-1" value=":SplashActivity" style="shape=umlLifeline;perimeter=lifelinePerimeter;container=1;collapsible=0;recursiveResize=0;rounded=0;shadow=0;strokeWidth=1;" parent="1" vertex="1">
          <mxGeometry x="80" y="80" width="100" height="440" as="geometry" />
        </mxCell>
        <mxCell id="3nuBFxr9cyL0pnOWT2aG-3" value="AppStart" style="verticalAlign=bottom;startArrow=oval;endArrow=block;startSize=8;shadow=0;strokeWidth=1;" parent="3nuBFxr9cyL0pnOWT2aG-1" edge="1">
          <mxGeometry relative="1" as="geometry">
            <mxPoint x="-15" y="70" as="sourcePoint" />
            <mxPoint x="45" y="70" as="targetPoint" />
          </mxGeometry>
        </mxCell>
        <mxCell id="uLN1TVFjSlXKnkesUgfp-4" value="" style="html=1;points=[];perimeter=orthogonalPerimeter;" vertex="1" parent="3nuBFxr9cyL0pnOWT2aG-1">
          <mxGeometry x="45" y="50" width="10" height="40" as="geometry" />
        </mxCell>
        <mxCell id="uLN1TVFjSlXKnkesUgfp-11" value="" style="html=1;points=[];perimeter=orthogonalPerimeter;" vertex="1" parent="3nuBFxr9cyL0pnOWT2aG-1">
          <mxGeometry x="45" y="130" width="10" height="80" as="geometry" />
        </mxCell>
        <mxCell id="uLN1TVFjSlXKnkesUgfp-37" value="&lt;span style=&quot;font-size: 8px&quot;&gt;[有效]&lt;/span&gt;" style="text;html=1;strokeColor=none;fillColor=none;align=center;verticalAlign=middle;whiteSpace=wrap;rounded=0;" vertex="1" parent="3nuBFxr9cyL0pnOWT2aG-1">
          <mxGeometry x="-10" y="350" width="40" height="20" as="geometry" />
        </mxCell>
        <mxCell id="uLN1TVFjSlXKnkesUgfp-40" value="" style="html=1;verticalAlign=bottom;endArrow=block;entryX=0.5;entryY=0.708;entryDx=0;entryDy=0;entryPerimeter=0;" edge="1" parent="3nuBFxr9cyL0pnOWT2aG-1" target="3nuBFxr9cyL0pnOWT2aG-5">
          <mxGeometry width="80" relative="1" as="geometry">
            <mxPoint x="50" y="340" as="sourcePoint" />
            <mxPoint x="130" y="340" as="targetPoint" />
          </mxGeometry>
        </mxCell>
        <mxCell id="uLN1TVFjSlXKnkesUgfp-41" value="获取Credentials" style="edgeLabel;html=1;align=center;verticalAlign=middle;resizable=0;points=[];" vertex="1" connectable="0" parent="uLN1TVFjSlXKnkesUgfp-40">
          <mxGeometry x="-0.7174" y="3" relative="1" as="geometry">
            <mxPoint as="offset" />
          </mxGeometry>
        </mxCell>
        <mxCell id="uLN1TVFjSlXKnkesUgfp-47" value="" style="html=1;points=[];perimeter=orthogonalPerimeter;" vertex="1" parent="3nuBFxr9cyL0pnOWT2aG-1">
          <mxGeometry x="45" y="350" width="10" height="60" as="geometry" />
        </mxCell>
        <mxCell id="3nuBFxr9cyL0pnOWT2aG-5" value=":Auth0 Server" style="shape=umlLifeline;perimeter=lifelinePerimeter;container=1;collapsible=0;recursiveResize=0;rounded=0;shadow=0;strokeWidth=1;" parent="1" vertex="1">
          <mxGeometry x="520" y="80" width="100" height="480" as="geometry" />
        </mxCell>
        <mxCell id="uLN1TVFjSlXKnkesUgfp-44" value="" style="html=1;points=[];perimeter=orthogonalPerimeter;" vertex="1" parent="3nuBFxr9cyL0pnOWT2aG-5">
          <mxGeometry x="45" y="330" width="10" height="80" as="geometry" />
        </mxCell>
        <mxCell id="uLN1TVFjSlXKnkesUgfp-3" value=":Wohui Server" style="shape=umlLifeline;perimeter=lifelinePerimeter;whiteSpace=wrap;html=1;container=1;collapsible=0;recursiveResize=0;outlineConnect=0;" vertex="1" parent="1">
          <mxGeometry x="375" y="80" width="100" height="460" as="geometry" />
        </mxCell>
        <mxCell id="uLN1TVFjSlXKnkesUgfp-21" value="" style="html=1;points=[];perimeter=orthogonalPerimeter;" vertex="1" parent="uLN1TVFjSlXKnkesUgfp-3">
          <mxGeometry x="45" y="140" width="10" height="80" as="geometry" />
        </mxCell>
        <mxCell id="uLN1TVFjSlXKnkesUgfp-49" value="" style="html=1;points=[];perimeter=orthogonalPerimeter;" vertex="1" parent="uLN1TVFjSlXKnkesUgfp-3">
          <mxGeometry x="45" y="370" width="10" height="40" as="geometry" />
        </mxCell>
        <mxCell id="uLN1TVFjSlXKnkesUgfp-6" value=":LearnInfoVM" style="shape=umlLifeline;perimeter=lifelinePerimeter;whiteSpace=wrap;html=1;container=1;collapsible=0;recursiveResize=0;outlineConnect=0;" vertex="1" parent="1">
          <mxGeometry x="230" y="80" width="100" height="460" as="geometry" />
        </mxCell>
        <mxCell id="uLN1TVFjSlXKnkesUgfp-9" value="" style="html=1;points=[];perimeter=orthogonalPerimeter;" vertex="1" parent="uLN1TVFjSlXKnkesUgfp-6">
          <mxGeometry x="45" y="50" width="10" height="50" as="geometry" />
        </mxCell>
        <mxCell id="uLN1TVFjSlXKnkesUgfp-10" value="启动参数" style="html=1;verticalAlign=bottom;endArrow=block;entryX=0.14;entryY=0.24;entryDx=0;entryDy=0;entryPerimeter=0;" edge="1" parent="1" target="uLN1TVFjSlXKnkesUgfp-9">
          <mxGeometry width="80" relative="1" as="geometry">
            <mxPoint x="135" y="140" as="sourcePoint" />
            <mxPoint x="215" y="140" as="targetPoint" />
          </mxGeometry>
        </mxCell>
        <mxCell id="uLN1TVFjSlXKnkesUgfp-12" value="获取最新版本" style="html=1;verticalAlign=bottom;endArrow=block;" edge="1" parent="1" target="uLN1TVFjSlXKnkesUgfp-3">
          <mxGeometry width="80" relative="1" as="geometry">
            <mxPoint x="140" y="240" as="sourcePoint" />
            <mxPoint x="230" y="240" as="targetPoint" />
            <Array as="points">
              <mxPoint x="160" y="240" />
              <mxPoint x="200" y="240" />
              <mxPoint x="410" y="240" />
            </Array>
          </mxGeometry>
        </mxCell>
        <mxCell id="uLN1TVFjSlXKnkesUgfp-13" value="" style="html=1;verticalAlign=bottom;endArrow=open;dashed=1;endSize=8;" edge="1" parent="1">
          <mxGeometry relative="1" as="geometry">
            <mxPoint x="420" y="260" as="sourcePoint" />
            <mxPoint x="140" y="260" as="targetPoint" />
            <Array as="points">
              <mxPoint x="270" y="260" />
            </Array>
          </mxGeometry>
        </mxCell>
        <mxCell id="uLN1TVFjSlXKnkesUgfp-16" value="判断是否升级" style="edgeLabel;html=1;align=center;verticalAlign=middle;resizable=0;points=[];" vertex="1" connectable="0" parent="uLN1TVFjSlXKnkesUgfp-13">
          <mxGeometry x="0.1429" y="-1" relative="1" as="geometry">
            <mxPoint as="offset" />
          </mxGeometry>
        </mxCell>
        <mxCell id="uLN1TVFjSlXKnkesUgfp-17" value="" style="html=1;points=[];perimeter=orthogonalPerimeter;" vertex="1" parent="1">
          <mxGeometry x="125" y="340" width="10" height="40" as="geometry" />
        </mxCell>
        <mxCell id="uLN1TVFjSlXKnkesUgfp-18" value="验证登录信息" style="edgeStyle=orthogonalEdgeStyle;html=1;align=left;spacingLeft=2;endArrow=block;rounded=0;entryX=1;entryY=0;" edge="1" target="uLN1TVFjSlXKnkesUgfp-17" parent="1">
          <mxGeometry relative="1" as="geometry">
            <mxPoint x="135" y="320" as="sourcePoint" />
            <Array as="points">
              <mxPoint x="165" y="320" />
            </Array>
          </mxGeometry>
        </mxCell>
        <mxCell id="uLN1TVFjSlXKnkesUgfp-36" value="" style="endArrow=none;dashed=1;html=1;dashPattern=1 3;strokeWidth=2;entryX=1.002;entryY=0.56;entryDx=0;entryDy=0;entryPerimeter=0;exitX=0.003;exitY=0.57;exitDx=0;exitDy=0;exitPerimeter=0;" edge="1" parent="1" source="uLN1TVFjSlXKnkesUgfp-20" target="uLN1TVFjSlXKnkesUgfp-20">
          <mxGeometry width="50" height="50" relative="1" as="geometry">
            <mxPoint x="50" y="496" as="sourcePoint" />
            <mxPoint x="120" y="450" as="targetPoint" />
          </mxGeometry>
        </mxCell>
        <mxCell id="uLN1TVFjSlXKnkesUgfp-38" value="&lt;font style=&quot;font-size: 8px&quot;&gt;[无效]&lt;/font&gt;" style="text;html=1;strokeColor=none;fillColor=none;align=center;verticalAlign=middle;whiteSpace=wrap;rounded=0;" vertex="1" parent="1">
          <mxGeometry x="70" y="510" width="40" height="50" as="geometry" />
        </mxCell>
        <mxCell id="uLN1TVFjSlXKnkesUgfp-42" value="" style="html=1;verticalAlign=bottom;endArrow=open;dashed=1;endSize=8;entryX=0.52;entryY=0.816;entryDx=0;entryDy=0;entryPerimeter=0;" edge="1" parent="1" target="3nuBFxr9cyL0pnOWT2aG-1">
          <mxGeometry relative="1" as="geometry">
            <mxPoint x="570" y="440" as="sourcePoint" />
            <mxPoint x="490" y="440" as="targetPoint" />
          </mxGeometry>
        </mxCell>
        <mxCell id="uLN1TVFjSlXKnkesUgfp-54" value="获取用户信息" style="html=1;verticalAlign=bottom;endArrow=block;" edge="1" parent="1">
          <mxGeometry x="-0.1289" y="1" width="80" relative="1" as="geometry">
            <mxPoint x="135" y="470" as="sourcePoint" />
            <mxPoint x="422" y="468" as="targetPoint" />
            <mxPoint as="offset" />
          </mxGeometry>
        </mxCell>
        <mxCell id="uLN1TVFjSlXKnkesUgfp-56" value="return" style="html=1;verticalAlign=bottom;endArrow=open;dashed=1;endSize=8;" edge="1" parent="1" target="uLN1TVFjSlXKnkesUgfp-47">
          <mxGeometry x="0.0526" y="10" relative="1" as="geometry">
            <mxPoint x="420" y="480" as="sourcePoint" />
            <mxPoint x="340" y="480" as="targetPoint" />
            <mxPoint as="offset" />
          </mxGeometry>
        </mxCell>
      </root>
    </mxGraphModel>
  </diagram>
</mxfile>
